<svg width="250" height="80" viewBox="0 0 250 80" fill="none" xmlns="http://www.w3.org/2000/svg">
<path d="M32.8284 12L46.9706 26.1421V26.8284L32.8284 40.9706L30 38.1421L35.1421 33H0V29H39.1421L41.6569 26.4853L39.1716 24H0V20H35.1716L30 14.8284L32.8284 12Z" fill="#244164"/>
<path d="M70.424 31.644C70.424 32.4 70.544 32.952 70.784 33.3C71.024 33.636 71.402 33.888 71.918 34.056L71.108 36.432C70.244 36.324 69.488 36.066 68.84 35.658C68.204 35.25 67.736 34.626 67.436 33.786C66.752 34.674 65.888 35.34 64.844 35.784C63.8 36.228 62.666 36.45 61.442 36.45C59.534 36.45 58.028 35.91 56.924 34.83C55.82 33.75 55.268 32.328 55.268 30.564C55.268 28.596 56.036 27.084 57.572 26.028C59.12 24.96 61.34 24.426 64.232 24.426H66.986V22.986C66.986 21.678 66.596 20.748 65.816 20.196C65.048 19.644 63.974 19.368 62.594 19.368C61.958 19.368 61.208 19.446 60.344 19.602C59.492 19.758 58.58 20.004 57.608 20.34L56.726 17.82C57.89 17.376 59.012 17.058 60.092 16.866C61.172 16.674 62.18 16.578 63.116 16.578C65.552 16.578 67.376 17.136 68.588 18.252C69.812 19.368 70.424 20.886 70.424 22.806V31.644ZM62.414 33.858C63.29 33.858 64.136 33.63 64.952 33.174C65.78 32.718 66.458 32.082 66.986 31.266V26.676H64.466C62.462 26.676 61.04 27.018 60.2 27.702C59.36 28.374 58.94 29.298 58.94 30.474C58.94 32.73 60.098 33.858 62.414 33.858ZM78.2039 36V33.444H81.0839V19.584H78.2039V17.028H83.7299L84.3599 21.474C85.0799 19.902 85.9619 18.696 87.0059 17.856C88.0619 17.004 89.4299 16.578 91.1099 16.578C91.6619 16.578 92.1479 16.62 92.5679 16.704C92.9999 16.788 93.4379 16.896 93.8819 17.028L93.3419 23.688H90.6779V19.728H90.6599C87.8159 19.728 85.7759 21.762 84.5399 25.83V33.444H88.3919V36H78.2039ZM99.7899 36V33.444H102.67V19.584H99.7899V17.028H105.316L105.946 21.474C106.666 19.902 107.548 18.696 108.592 17.856C109.648 17.004 111.016 16.578 112.696 16.578C113.248 16.578 113.734 16.62 114.154 16.704C114.586 16.788 115.024 16.896 115.468 17.028L114.928 23.688H112.264V19.728H112.246C109.402 19.728 107.362 21.762 106.126 25.83V33.444H109.978V36H99.7899ZM128.594 16.578C131.306 16.578 133.364 17.478 134.768 19.278C136.184 21.078 136.892 23.484 136.892 26.496C136.892 28.452 136.568 30.18 135.92 31.68C135.284 33.18 134.348 34.35 133.112 35.19C131.876 36.03 130.358 36.45 128.558 36.45C125.846 36.45 123.776 35.55 122.348 33.75C120.932 31.95 120.224 29.544 120.224 26.532C120.224 24.564 120.542 22.836 121.178 21.348C121.826 19.848 122.768 18.678 124.004 17.838C125.252 16.998 126.782 16.578 128.594 16.578ZM128.594 19.332C127.034 19.332 125.858 19.92 125.066 21.096C124.274 22.26 123.878 24.072 123.878 26.532C123.878 28.968 124.268 30.774 125.048 31.95C125.828 33.114 126.998 33.696 128.558 33.696C130.118 33.696 131.288 33.114 132.068 31.95C132.848 30.774 133.238 28.956 133.238 26.496C133.238 24.048 132.848 22.242 132.068 21.078C131.288 19.914 130.13 19.332 128.594 19.332ZM157.182 36H152.574L150.252 22.266L147.75 36H143.25L139.884 17.028H143.322L145.554 33.858L148.416 19.44H152.196L154.878 33.858L157.11 17.028H160.404L157.182 36ZM171.01 33.696C172.39 33.696 173.476 33.444 174.268 32.94C175.072 32.436 175.474 31.752 175.474 30.888C175.474 30.336 175.366 29.868 175.15 29.484C174.946 29.088 174.514 28.728 173.854 28.404C173.206 28.068 172.222 27.732 170.902 27.396C169.606 27.072 168.478 26.694 167.518 26.262C166.57 25.83 165.832 25.266 165.304 24.57C164.788 23.874 164.53 22.974 164.53 21.87C164.53 20.262 165.202 18.978 166.546 18.018C167.89 17.058 169.672 16.578 171.892 16.578C173.452 16.578 174.808 16.788 175.96 17.208C177.112 17.616 178.096 18.12 178.912 18.72L177.436 20.97C176.704 20.49 175.9 20.094 175.024 19.782C174.16 19.458 173.14 19.296 171.964 19.296C170.56 19.296 169.558 19.512 168.958 19.944C168.37 20.364 168.076 20.922 168.076 21.618C168.076 22.146 168.22 22.584 168.508 22.932C168.808 23.268 169.318 23.58 170.038 23.868C170.758 24.144 171.754 24.456 173.026 24.804C174.262 25.14 175.342 25.536 176.266 25.992C177.19 26.448 177.904 27.048 178.408 27.792C178.924 28.524 179.182 29.49 179.182 30.69C179.182 32.046 178.792 33.15 178.012 34.002C177.232 34.842 176.218 35.46 174.97 35.856C173.734 36.252 172.414 36.45 171.01 36.45C169.282 36.45 167.794 36.198 166.546 35.694C165.31 35.19 164.272 34.572 163.432 33.84L165.34 31.644C166.072 32.256 166.918 32.754 167.878 33.138C168.85 33.51 169.894 33.696 171.01 33.696Z" fill="#244164"/>
<path d="M48.2577 46L60 57.7157V58.2843L48.2577 70L45.9092 67.6569L50.1788 63.397H21V60.0833H53.5L55.588 58L53.5245 55.9411H21V52.6274H50.2032L45.9092 48.3431L48.2577 46Z" fill="#30B6AE"/>
<path d="M74.804 46.988L77.108 47.264V65H75.08L74.888 63.38C73.992 64.66 72.8 65.3 71.312 65.3C70.224 65.3 69.324 65.024 68.612 64.472C67.908 63.912 67.384 63.136 67.04 62.144C66.696 61.152 66.524 60 66.524 58.688C66.524 57.408 66.72 56.272 67.112 55.28C67.512 54.28 68.08 53.492 68.816 52.916C69.56 52.34 70.456 52.052 71.504 52.052C72.864 52.052 73.964 52.532 74.804 53.492V46.988ZM72.104 53.864C71.112 53.864 70.344 54.26 69.8 55.052C69.264 55.844 68.996 57.056 68.996 58.688C68.996 60.312 69.24 61.516 69.728 62.3C70.224 63.084 70.936 63.476 71.864 63.476C72.528 63.476 73.1 63.288 73.58 62.912C74.068 62.528 74.476 62.08 74.804 61.568V55.388C74.476 54.908 74.08 54.536 73.616 54.272C73.16 54 72.656 53.864 72.104 53.864ZM86.5906 46.304C87.0706 46.304 87.4546 46.452 87.7426 46.748C88.0386 47.044 88.1866 47.404 88.1866 47.828C88.1866 48.268 88.0386 48.64 87.7426 48.944C87.4546 49.24 87.0706 49.388 86.5906 49.388C86.1186 49.388 85.7346 49.24 85.4386 48.944C85.1506 48.64 85.0066 48.268 85.0066 47.828C85.0066 47.404 85.1506 47.044 85.4386 46.748C85.7346 46.452 86.1186 46.304 86.5906 46.304ZM88.3066 52.352V63.248H91.8226V65H82.1506V63.248H86.0026V54.104H82.2706V52.352H88.3066ZM100.501 63.464C101.421 63.464 102.145 63.296 102.673 62.96C103.209 62.624 103.477 62.168 103.477 61.592C103.477 61.224 103.405 60.912 103.261 60.656C103.125 60.392 102.837 60.152 102.397 59.936C101.965 59.712 101.309 59.488 100.429 59.264C99.5653 59.048 98.8133 58.796 98.1733 58.508C97.5413 58.22 97.0493 57.844 96.6973 57.38C96.3533 56.916 96.1813 56.316 96.1813 55.58C96.1813 54.508 96.6293 53.652 97.5253 53.012C98.4213 52.372 99.6093 52.052 101.089 52.052C102.129 52.052 103.033 52.192 103.801 52.472C104.569 52.744 105.225 53.08 105.769 53.48L104.785 54.98C104.297 54.66 103.761 54.396 103.177 54.188C102.601 53.972 101.921 53.864 101.137 53.864C100.201 53.864 99.5333 54.008 99.1333 54.296C98.7413 54.576 98.5453 54.948 98.5453 55.412C98.5453 55.764 98.6413 56.056 98.8333 56.288C99.0333 56.512 99.3733 56.72 99.8533 56.912C100.333 57.096 100.997 57.304 101.845 57.536C102.669 57.76 103.389 58.024 104.005 58.328C104.621 58.632 105.097 59.032 105.433 59.528C105.777 60.016 105.949 60.66 105.949 61.46C105.949 62.364 105.689 63.1 105.169 63.668C104.649 64.228 103.973 64.64 103.141 64.904C102.317 65.168 101.437 65.3 100.501 65.3C99.3493 65.3 98.3573 65.132 97.5253 64.796C96.7013 64.46 96.0093 64.048 95.4493 63.56L96.7213 62.096C97.2093 62.504 97.7733 62.836 98.4133 63.092C99.0613 63.34 99.7573 63.464 100.501 63.464ZM116.344 52.052C117.464 52.052 118.36 52.328 119.032 52.88C119.704 53.424 120.188 54.192 120.484 55.184C120.78 56.168 120.928 57.328 120.928 58.664C120.928 59.944 120.748 61.084 120.388 62.084C120.028 63.084 119.488 63.872 118.768 64.448C118.048 65.016 117.144 65.3 116.056 65.3C114.696 65.3 113.6 64.82 112.768 63.86V69.848L110.464 70.124V52.352H112.444L112.612 54.056C113.588 52.72 114.832 52.052 116.344 52.052ZM115.756 53.864C115.1 53.864 114.52 54.064 114.016 54.464C113.512 54.856 113.096 55.304 112.768 55.808V61.928C113.088 62.4 113.48 62.772 113.944 63.044C114.408 63.308 114.924 63.44 115.492 63.44C116.484 63.44 117.232 63.056 117.736 62.288C118.24 61.512 118.492 60.304 118.492 58.664C118.492 57.024 118.268 55.816 117.82 55.04C117.372 54.256 116.684 53.864 115.756 53.864ZM134.179 62.096C134.179 62.6 134.259 62.968 134.419 63.2C134.579 63.424 134.831 63.592 135.174 63.704L134.635 65.288C134.059 65.216 133.555 65.044 133.123 64.772C132.699 64.5 132.387 64.084 132.187 63.524C131.731 64.116 131.155 64.56 130.459 64.856C129.763 65.152 129.007 65.3 128.191 65.3C126.919 65.3 125.915 64.94 125.179 64.22C124.443 63.5 124.075 62.552 124.075 61.376C124.075 60.064 124.587 59.056 125.611 58.352C126.643 57.64 128.123 57.284 130.051 57.284H131.887V56.324C131.887 55.452 131.627 54.832 131.107 54.464C130.595 54.096 129.879 53.912 128.959 53.912C128.535 53.912 128.035 53.964 127.459 54.068C126.891 54.172 126.283 54.336 125.635 54.56L125.047 52.88C125.823 52.584 126.571 52.372 127.291 52.244C128.011 52.116 128.683 52.052 129.307 52.052C130.931 52.052 132.147 52.424 132.955 53.168C133.771 53.912 134.179 54.924 134.179 56.204V62.096ZM128.839 63.572C129.423 63.572 129.987 63.42 130.531 63.116C131.083 62.812 131.535 62.388 131.887 61.844V58.784H130.207C128.871 58.784 127.923 59.012 127.363 59.468C126.803 59.916 126.523 60.532 126.523 61.316C126.523 62.82 127.295 63.572 128.839 63.572ZM149.517 64.352C149.069 64.64 148.529 64.868 147.897 65.036C147.273 65.212 146.641 65.3 146.001 65.3C144.593 65.3 143.513 64.932 142.761 64.196C142.017 63.46 141.645 62.504 141.645 61.328V54.08H138.777V52.352H141.645V49.496L143.949 49.22V52.352H148.269L148.005 54.08H143.949V61.304C143.949 62 144.125 62.524 144.477 62.876C144.837 63.228 145.433 63.404 146.265 63.404C146.729 63.404 147.157 63.352 147.549 63.248C147.949 63.136 148.317 62.988 148.653 62.804L149.517 64.352ZM159.516 63.356C160.132 63.356 160.704 63.256 161.232 63.056C161.768 62.848 162.268 62.58 162.732 62.252L163.836 63.752C163.276 64.216 162.604 64.592 161.82 64.88C161.044 65.16 160.264 65.3 159.48 65.3C158.208 65.3 157.12 65.028 156.216 64.484C155.32 63.94 154.636 63.176 154.164 62.192C153.692 61.208 153.456 60.056 153.456 58.736C153.456 57.456 153.692 56.316 154.164 55.316C154.644 54.308 155.336 53.512 156.24 52.928C157.144 52.344 158.236 52.052 159.516 52.052C161.164 52.052 162.596 52.548 163.812 53.54L162.72 55.04C161.656 54.304 160.592 53.936 159.528 53.936C158.472 53.936 157.608 54.328 156.936 55.112C156.264 55.896 155.928 57.104 155.928 58.736C155.928 60.376 156.264 61.556 156.936 62.276C157.616 62.996 158.476 63.356 159.516 63.356ZM170.33 47.036V53.996C170.834 53.356 171.438 52.872 172.142 52.544C172.854 52.216 173.578 52.052 174.314 52.052C175.53 52.052 176.426 52.384 177.002 53.048C177.578 53.704 177.866 54.62 177.866 55.796V65H175.562V56C175.562 55.24 175.398 54.692 175.07 54.356C174.75 54.012 174.238 53.84 173.534 53.84C172.862 53.84 172.242 54.052 171.674 54.476C171.114 54.9 170.666 55.36 170.33 55.856V65H168.026V47.288L170.33 47.036Z" fill="#30B6AE"/>
</svg>
