<svg width="250" height="80" viewBox="0 0 250 80" fill="none" xmlns="http://www.w3.org/2000/svg">
<path d="M32.8284 11L46.9706 25.1421V25.8284L32.8284 39.9706L30 37.1421L35.1421 32H0V28H39.1421L41.6569 25.4853L39.1716 23H0V19H35.1716L30 13.8284L32.8284 11Z" fill="#244164"/>
<path d="M70.424 30.644C70.424 31.4 70.544 31.952 70.784 32.3C71.024 32.636 71.402 32.888 71.918 33.056L71.108 35.432C70.244 35.324 69.488 35.066 68.84 34.658C68.204 34.25 67.736 33.626 67.436 32.786C66.752 33.674 65.888 34.34 64.844 34.784C63.8 35.228 62.666 35.45 61.442 35.45C59.534 35.45 58.028 34.91 56.924 33.83C55.82 32.75 55.268 31.328 55.268 29.564C55.268 27.596 56.036 26.084 57.572 25.028C59.12 23.96 61.34 23.426 64.232 23.426H66.986V21.986C66.986 20.678 66.596 19.748 65.816 19.196C65.048 18.644 63.974 18.368 62.594 18.368C61.958 18.368 61.208 18.446 60.344 18.602C59.492 18.758 58.58 19.004 57.608 19.34L56.726 16.82C57.89 16.376 59.012 16.058 60.092 15.866C61.172 15.674 62.18 15.578 63.116 15.578C65.552 15.578 67.376 16.136 68.588 17.252C69.812 18.368 70.424 19.886 70.424 21.806V30.644ZM62.414 32.858C63.29 32.858 64.136 32.63 64.952 32.174C65.78 31.718 66.458 31.082 66.986 30.266V25.676H64.466C62.462 25.676 61.04 26.018 60.2 26.702C59.36 27.374 58.94 28.298 58.94 29.474C58.94 31.73 60.098 32.858 62.414 32.858ZM78.2039 35V32.444H81.0839V18.584H78.2039V16.028H83.7299L84.3599 20.474C85.0799 18.902 85.9619 17.696 87.0059 16.856C88.0619 16.004 89.4299 15.578 91.1099 15.578C91.6619 15.578 92.1479 15.62 92.5679 15.704C92.9999 15.788 93.4379 15.896 93.8819 16.028L93.3419 22.688H90.6779V18.728H90.6599C87.8159 18.728 85.7759 20.762 84.5399 24.83V32.444H88.3919V35H78.2039ZM99.7899 35V32.444H102.67V18.584H99.7899V16.028H105.316L105.946 20.474C106.666 18.902 107.548 17.696 108.592 16.856C109.648 16.004 111.016 15.578 112.696 15.578C113.248 15.578 113.734 15.62 114.154 15.704C114.586 15.788 115.024 15.896 115.468 16.028L114.928 22.688H112.264V18.728H112.246C109.402 18.728 107.362 20.762 106.126 24.83V32.444H109.978V35H99.7899ZM128.594 15.578C131.306 15.578 133.364 16.478 134.768 18.278C136.184 20.078 136.892 22.484 136.892 25.496C136.892 27.452 136.568 29.18 135.92 30.68C135.284 32.18 134.348 33.35 133.112 34.19C131.876 35.03 130.358 35.45 128.558 35.45C125.846 35.45 123.776 34.55 122.348 32.75C120.932 30.95 120.224 28.544 120.224 25.532C120.224 23.564 120.542 21.836 121.178 20.348C121.826 18.848 122.768 17.678 124.004 16.838C125.252 15.998 126.782 15.578 128.594 15.578ZM128.594 18.332C127.034 18.332 125.858 18.92 125.066 20.096C124.274 21.26 123.878 23.072 123.878 25.532C123.878 27.968 124.268 29.774 125.048 30.95C125.828 32.114 126.998 32.696 128.558 32.696C130.118 32.696 131.288 32.114 132.068 30.95C132.848 29.774 133.238 27.956 133.238 25.496C133.238 23.048 132.848 21.242 132.068 20.078C131.288 18.914 130.13 18.332 128.594 18.332ZM157.182 35H152.574L150.252 21.266L147.75 35H143.25L139.884 16.028H143.322L145.554 32.858L148.416 18.44H152.196L154.878 32.858L157.11 16.028H160.404L157.182 35ZM171.01 32.696C172.39 32.696 173.476 32.444 174.268 31.94C175.072 31.436 175.474 30.752 175.474 29.888C175.474 29.336 175.366 28.868 175.15 28.484C174.946 28.088 174.514 27.728 173.854 27.404C173.206 27.068 172.222 26.732 170.902 26.396C169.606 26.072 168.478 25.694 167.518 25.262C166.57 24.83 165.832 24.266 165.304 23.57C164.788 22.874 164.53 21.974 164.53 20.87C164.53 19.262 165.202 17.978 166.546 17.018C167.89 16.058 169.672 15.578 171.892 15.578C173.452 15.578 174.808 15.788 175.96 16.208C177.112 16.616 178.096 17.12 178.912 17.72L177.436 19.97C176.704 19.49 175.9 19.094 175.024 18.782C174.16 18.458 173.14 18.296 171.964 18.296C170.56 18.296 169.558 18.512 168.958 18.944C168.37 19.364 168.076 19.922 168.076 20.618C168.076 21.146 168.22 21.584 168.508 21.932C168.808 22.268 169.318 22.58 170.038 22.868C170.758 23.144 171.754 23.456 173.026 23.804C174.262 24.14 175.342 24.536 176.266 24.992C177.19 25.448 177.904 26.048 178.408 26.792C178.924 27.524 179.182 28.49 179.182 29.69C179.182 31.046 178.792 32.15 178.012 33.002C177.232 33.842 176.218 34.46 174.97 34.856C173.734 35.252 172.414 35.45 171.01 35.45C169.282 35.45 167.794 35.198 166.546 34.694C165.31 34.19 164.272 33.572 163.432 32.84L165.34 30.644C166.072 31.256 166.918 31.754 167.878 32.138C168.85 32.51 169.894 32.696 171.01 32.696Z" fill="#244164"/>
<path d="M48.2577 45L60 56.7157V57.2843L48.2577 69L45.9092 66.6569L50.1788 62.397H21V59.0833H53.5L55.588 57L53.5245 54.9411H21V51.6274H50.2032L45.9092 47.3431L48.2577 45Z" fill="#5FB58B"/>
<path d="M75.8 51.052C76.232 51.052 76.636 51.148 77.012 51.34C77.396 51.532 77.704 51.884 77.936 52.396C78.168 52.9 78.284 53.632 78.284 54.592V64H76.184V54.928C76.184 54.192 76.136 53.664 76.04 53.344C75.952 53.016 75.696 52.852 75.272 52.852C74.92 52.852 74.568 52.96 74.216 53.176C73.872 53.392 73.536 53.752 73.208 54.256V64H71.192V54.928C71.192 54.192 71.144 53.664 71.048 53.344C70.96 53.016 70.704 52.852 70.28 52.852C69.92 52.852 69.568 52.96 69.224 53.176C68.88 53.392 68.544 53.752 68.216 54.256V64H66.116V51.352H67.892L68.036 52.768C68.388 52.28 68.776 51.872 69.2 51.544C69.632 51.216 70.156 51.052 70.772 51.052C71.252 51.052 71.696 51.168 72.104 51.4C72.52 51.632 72.824 52.064 73.016 52.696C73.36 52.208 73.752 51.812 74.192 51.508C74.632 51.204 75.168 51.052 75.8 51.052ZM83.9866 51.352V60.256C83.9866 61.056 84.1466 61.632 84.4666 61.984C84.7946 62.328 85.2986 62.5 85.9786 62.5C86.6186 62.5 87.2306 62.312 87.8146 61.936C88.4066 61.56 88.8666 61.112 89.1946 60.592V51.352H91.4986V64H89.5186L89.3506 62.332C88.8626 62.972 88.2546 63.46 87.5266 63.796C86.8066 64.132 86.0746 64.3 85.3306 64.3C84.1066 64.3 83.1906 63.968 82.5826 63.304C81.9826 62.64 81.6826 61.72 81.6826 60.544V51.352H83.9866ZM101.269 46.264V60.736C101.269 61.344 101.457 61.776 101.833 62.032C102.209 62.28 102.693 62.404 103.285 62.404C103.661 62.404 104.017 62.368 104.353 62.296C104.697 62.216 105.033 62.108 105.361 61.972L105.961 63.616C105.609 63.8 105.169 63.96 104.641 64.096C104.113 64.232 103.517 64.3 102.853 64.3C101.661 64.3 100.713 63.968 100.009 63.304C99.3133 62.64 98.9653 61.728 98.9653 60.568V48.016H95.1133V46.264H101.269ZM120.736 63.352C120.288 63.64 119.748 63.868 119.116 64.036C118.492 64.212 117.86 64.3 117.22 64.3C115.812 64.3 114.732 63.932 113.98 63.196C113.236 62.46 112.864 61.504 112.864 60.328V53.08H109.996V51.352H112.864V48.496L115.168 48.22V51.352H119.488L119.224 53.08H115.168V60.304C115.168 61 115.344 61.524 115.696 61.876C116.056 62.228 116.652 62.404 117.484 62.404C117.948 62.404 118.376 62.352 118.768 62.248C119.168 62.136 119.536 61.988 119.872 61.804L120.736 63.352ZM129.763 45.304C130.243 45.304 130.627 45.452 130.915 45.748C131.211 46.044 131.359 46.404 131.359 46.828C131.359 47.268 131.211 47.64 130.915 47.944C130.627 48.24 130.243 48.388 129.763 48.388C129.291 48.388 128.907 48.24 128.611 47.944C128.323 47.64 128.179 47.268 128.179 46.828C128.179 46.404 128.323 46.044 128.611 45.748C128.907 45.452 129.291 45.304 129.763 45.304ZM131.479 51.352V62.248H134.995V64H125.323V62.248H129.174V53.104H125.443V51.352H131.479ZM147.753 51.052C148.185 51.052 148.589 51.148 148.965 51.34C149.349 51.532 149.657 51.884 149.889 52.396C150.121 52.9 150.237 53.632 150.237 54.592V64H148.137V54.928C148.137 54.192 148.089 53.664 147.993 53.344C147.905 53.016 147.649 52.852 147.225 52.852C146.873 52.852 146.521 52.96 146.169 53.176C145.825 53.392 145.489 53.752 145.161 54.256V64H143.145V54.928C143.145 54.192 143.097 53.664 143.001 53.344C142.913 53.016 142.657 52.852 142.233 52.852C141.873 52.852 141.521 52.96 141.177 53.176C140.833 53.392 140.497 53.752 140.169 54.256V64H138.069V51.352H139.845L139.989 52.768C140.341 52.28 140.729 51.872 141.153 51.544C141.585 51.216 142.109 51.052 142.725 51.052C143.205 51.052 143.649 51.168 144.057 51.4C144.473 51.632 144.777 52.064 144.969 52.696C145.313 52.208 145.705 51.812 146.145 51.508C146.585 51.204 147.121 51.052 147.753 51.052ZM155.496 58.456C155.56 59.848 155.936 60.86 156.624 61.492C157.32 62.124 158.144 62.44 159.096 62.44C159.728 62.44 160.308 62.344 160.836 62.152C161.364 61.96 161.9 61.68 162.444 61.312L163.488 62.764C162.896 63.236 162.212 63.612 161.436 63.892C160.66 64.164 159.856 64.3 159.024 64.3C157.76 64.3 156.684 64.024 155.796 63.472C154.916 62.912 154.244 62.136 153.78 61.144C153.324 60.152 153.096 59 153.096 57.688C153.096 56.416 153.324 55.28 153.78 54.28C154.244 53.28 154.896 52.492 155.736 51.916C156.576 51.34 157.576 51.052 158.736 51.052C160.368 51.052 161.652 51.612 162.588 52.732C163.532 53.844 164.004 55.368 164.004 57.304C164.004 57.52 164 57.728 163.992 57.928C163.984 58.128 163.972 58.304 163.956 58.456H155.496ZM158.76 52.852C157.856 52.852 157.108 53.172 156.516 53.812C155.924 54.452 155.584 55.44 155.496 56.776H161.784C161.76 55.496 161.48 54.524 160.944 53.86C160.416 53.188 159.688 52.852 158.76 52.852ZM178.298 63.352C177.85 63.64 177.31 63.868 176.678 64.036C176.054 64.212 175.422 64.3 174.782 64.3C173.374 64.3 172.294 63.932 171.542 63.196C170.798 62.46 170.426 61.504 170.426 60.328V53.08H167.558V51.352H170.426V48.496L172.73 48.22V51.352H177.05L176.786 53.08H172.73V60.304C172.73 61 172.906 61.524 173.258 61.876C173.618 62.228 174.214 62.404 175.046 62.404C175.51 62.404 175.938 62.352 176.33 62.248C176.73 62.136 177.098 61.988 177.434 61.804L178.298 63.352ZM184.721 46.036V52.996C185.225 52.356 185.829 51.872 186.533 51.544C187.245 51.216 187.969 51.052 188.705 51.052C189.921 51.052 190.817 51.384 191.393 52.048C191.969 52.704 192.257 53.62 192.257 54.796V64H189.953V55C189.953 54.24 189.789 53.692 189.461 53.356C189.141 53.012 188.629 52.84 187.925 52.84C187.253 52.84 186.633 53.052 186.065 53.476C185.505 53.9 185.057 54.36 184.721 54.856V64H182.417V46.288L184.721 46.036ZM201.74 51.052C203.548 51.052 204.92 51.652 205.856 52.852C206.8 54.052 207.272 55.656 207.272 57.664C207.272 58.968 207.056 60.12 206.624 61.12C206.2 62.12 205.576 62.9 204.752 63.46C203.928 64.02 202.916 64.3 201.716 64.3C199.908 64.3 198.528 63.7 197.576 62.5C196.632 61.3 196.16 59.696 196.16 57.688C196.16 56.376 196.372 55.224 196.796 54.232C197.228 53.232 197.856 52.452 198.68 51.892C199.512 51.332 200.532 51.052 201.74 51.052ZM201.74 52.888C200.7 52.888 199.916 53.28 199.388 54.064C198.86 54.84 198.596 56.048 198.596 57.688C198.596 59.312 198.856 60.516 199.376 61.3C199.896 62.076 200.676 62.464 201.716 62.464C202.756 62.464 203.536 62.076 204.056 61.3C204.576 60.516 204.836 59.304 204.836 57.664C204.836 56.032 204.576 54.828 204.056 54.052C203.536 53.276 202.764 52.888 201.74 52.888ZM218.71 45.988L221.014 46.264V64H218.986L218.794 62.38C217.898 63.66 216.706 64.3 215.218 64.3C214.13 64.3 213.23 64.024 212.518 63.472C211.814 62.912 211.29 62.136 210.946 61.144C210.602 60.152 210.43 59 210.43 57.688C210.43 56.408 210.626 55.272 211.018 54.28C211.418 53.28 211.986 52.492 212.722 51.916C213.466 51.34 214.362 51.052 215.41 51.052C216.77 51.052 217.87 51.532 218.71 52.492V45.988ZM216.01 52.864C215.018 52.864 214.25 53.26 213.706 54.052C213.17 54.844 212.902 56.056 212.902 57.688C212.902 59.312 213.146 60.516 213.634 61.3C214.13 62.084 214.842 62.476 215.77 62.476C216.434 62.476 217.006 62.288 217.486 61.912C217.974 61.528 218.382 61.08 218.71 60.568V54.388C218.382 53.908 217.986 53.536 217.522 53.272C217.066 53 216.562 52.864 216.01 52.864Z" fill="#5FB58B"/>
</svg>
