<svg width="250" height="80" viewBox="0 0 250 80" fill="none" xmlns="http://www.w3.org/2000/svg">
<path d="M32.8284 12L46.9706 26.1421V26.8284L32.8284 40.9706L30 38.1421L35.1421 33H0V29H39.1421L41.6569 26.4853L39.1716 24H0V20H35.1716L30 14.8284L32.8284 12Z" fill="#244164"/>
<path d="M70.424 31.644C70.424 32.4 70.544 32.952 70.784 33.3C71.024 33.636 71.402 33.888 71.918 34.056L71.108 36.432C70.244 36.324 69.488 36.066 68.84 35.658C68.204 35.25 67.736 34.626 67.436 33.786C66.752 34.674 65.888 35.34 64.844 35.784C63.8 36.228 62.666 36.45 61.442 36.45C59.534 36.45 58.028 35.91 56.924 34.83C55.82 33.75 55.268 32.328 55.268 30.564C55.268 28.596 56.036 27.084 57.572 26.028C59.12 24.96 61.34 24.426 64.232 24.426H66.986V22.986C66.986 21.678 66.596 20.748 65.816 20.196C65.048 19.644 63.974 19.368 62.594 19.368C61.958 19.368 61.208 19.446 60.344 19.602C59.492 19.758 58.58 20.004 57.608 20.34L56.726 17.82C57.89 17.376 59.012 17.058 60.092 16.866C61.172 16.674 62.18 16.578 63.116 16.578C65.552 16.578 67.376 17.136 68.588 18.252C69.812 19.368 70.424 20.886 70.424 22.806V31.644ZM62.414 33.858C63.29 33.858 64.136 33.63 64.952 33.174C65.78 32.718 66.458 32.082 66.986 31.266V26.676H64.466C62.462 26.676 61.04 27.018 60.2 27.702C59.36 28.374 58.94 29.298 58.94 30.474C58.94 32.73 60.098 33.858 62.414 33.858ZM78.2039 36V33.444H81.0839V19.584H78.2039V17.028H83.7299L84.3599 21.474C85.0799 19.902 85.9619 18.696 87.0059 17.856C88.0619 17.004 89.4299 16.578 91.1099 16.578C91.6619 16.578 92.1479 16.62 92.5679 16.704C92.9999 16.788 93.4379 16.896 93.8819 17.028L93.3419 23.688H90.6779V19.728H90.6599C87.8159 19.728 85.7759 21.762 84.5399 25.83V33.444H88.3919V36H78.2039ZM99.7899 36V33.444H102.67V19.584H99.7899V17.028H105.316L105.946 21.474C106.666 19.902 107.548 18.696 108.592 17.856C109.648 17.004 111.016 16.578 112.696 16.578C113.248 16.578 113.734 16.62 114.154 16.704C114.586 16.788 115.024 16.896 115.468 17.028L114.928 23.688H112.264V19.728H112.246C109.402 19.728 107.362 21.762 106.126 25.83V33.444H109.978V36H99.7899ZM128.594 16.578C131.306 16.578 133.364 17.478 134.768 19.278C136.184 21.078 136.892 23.484 136.892 26.496C136.892 28.452 136.568 30.18 135.92 31.68C135.284 33.18 134.348 34.35 133.112 35.19C131.876 36.03 130.358 36.45 128.558 36.45C125.846 36.45 123.776 35.55 122.348 33.75C120.932 31.95 120.224 29.544 120.224 26.532C120.224 24.564 120.542 22.836 121.178 21.348C121.826 19.848 122.768 18.678 124.004 17.838C125.252 16.998 126.782 16.578 128.594 16.578ZM128.594 19.332C127.034 19.332 125.858 19.92 125.066 21.096C124.274 22.26 123.878 24.072 123.878 26.532C123.878 28.968 124.268 30.774 125.048 31.95C125.828 33.114 126.998 33.696 128.558 33.696C130.118 33.696 131.288 33.114 132.068 31.95C132.848 30.774 133.238 28.956 133.238 26.496C133.238 24.048 132.848 22.242 132.068 21.078C131.288 19.914 130.13 19.332 128.594 19.332ZM157.182 36H152.574L150.252 22.266L147.75 36H143.25L139.884 17.028H143.322L145.554 33.858L148.416 19.44H152.196L154.878 33.858L157.11 17.028H160.404L157.182 36ZM171.01 33.696C172.39 33.696 173.476 33.444 174.268 32.94C175.072 32.436 175.474 31.752 175.474 30.888C175.474 30.336 175.366 29.868 175.15 29.484C174.946 29.088 174.514 28.728 173.854 28.404C173.206 28.068 172.222 27.732 170.902 27.396C169.606 27.072 168.478 26.694 167.518 26.262C166.57 25.83 165.832 25.266 165.304 24.57C164.788 23.874 164.53 22.974 164.53 21.87C164.53 20.262 165.202 18.978 166.546 18.018C167.89 17.058 169.672 16.578 171.892 16.578C173.452 16.578 174.808 16.788 175.96 17.208C177.112 17.616 178.096 18.12 178.912 18.72L177.436 20.97C176.704 20.49 175.9 20.094 175.024 19.782C174.16 19.458 173.14 19.296 171.964 19.296C170.56 19.296 169.558 19.512 168.958 19.944C168.37 20.364 168.076 20.922 168.076 21.618C168.076 22.146 168.22 22.584 168.508 22.932C168.808 23.268 169.318 23.58 170.038 23.868C170.758 24.144 171.754 24.456 173.026 24.804C174.262 25.14 175.342 25.536 176.266 25.992C177.19 26.448 177.904 27.048 178.408 27.792C178.924 28.524 179.182 29.49 179.182 30.69C179.182 32.046 178.792 33.15 178.012 34.002C177.232 34.842 176.218 35.46 174.97 35.856C173.734 36.252 172.414 36.45 171.01 36.45C169.282 36.45 167.794 36.198 166.546 35.694C165.31 35.19 164.272 34.572 163.432 33.84L165.34 31.644C166.072 32.256 166.918 32.754 167.878 33.138C168.85 33.51 169.894 33.696 171.01 33.696Z" fill="#244164"/>
<path d="M48.2577 46L60 57.7157V58.2843L48.2577 70L45.9092 67.6569L50.1788 63.397H21V60.0833H53.5L55.588 58L53.5245 55.9411H21V52.6274H50.2032L45.9092 48.3431L48.2577 46Z" fill="#D64DA7"/>
<path d="M71.72 63.464C72.64 63.464 73.364 63.296 73.892 62.96C74.428 62.624 74.696 62.168 74.696 61.592C74.696 61.224 74.624 60.912 74.48 60.656C74.344 60.392 74.056 60.152 73.616 59.936C73.184 59.712 72.528 59.488 71.648 59.264C70.784 59.048 70.032 58.796 69.392 58.508C68.76 58.22 68.268 57.844 67.916 57.38C67.572 56.916 67.4 56.316 67.4 55.58C67.4 54.508 67.848 53.652 68.744 53.012C69.64 52.372 70.828 52.052 72.308 52.052C73.348 52.052 74.252 52.192 75.02 52.472C75.788 52.744 76.444 53.08 76.988 53.48L76.004 54.98C75.516 54.66 74.98 54.396 74.396 54.188C73.82 53.972 73.14 53.864 72.356 53.864C71.42 53.864 70.752 54.008 70.352 54.296C69.96 54.576 69.764 54.948 69.764 55.412C69.764 55.764 69.86 56.056 70.052 56.288C70.252 56.512 70.592 56.72 71.072 56.912C71.552 57.096 72.216 57.304 73.064 57.536C73.888 57.76 74.608 58.024 75.224 58.328C75.84 58.632 76.316 59.032 76.652 59.528C76.996 60.016 77.168 60.66 77.168 61.46C77.168 62.364 76.908 63.1 76.388 63.668C75.868 64.228 75.192 64.64 74.36 64.904C73.536 65.168 72.656 65.3 71.72 65.3C70.568 65.3 69.576 65.132 68.744 64.796C67.92 64.46 67.228 64.048 66.668 63.56L67.94 62.096C68.428 62.504 68.992 62.836 69.632 63.092C70.28 63.34 70.976 63.464 71.72 63.464ZM91.9546 64.352C91.5066 64.64 90.9666 64.868 90.3346 65.036C89.7106 65.212 89.0786 65.3 88.4386 65.3C87.0306 65.3 85.9506 64.932 85.1986 64.196C84.4546 63.46 84.0826 62.504 84.0826 61.328V54.08H81.2146V52.352H84.0826V49.496L86.3866 49.22V52.352H90.7066L90.4426 54.08H86.3866V61.304C86.3866 62 86.5626 62.524 86.9146 62.876C87.2746 63.228 87.8706 63.404 88.7026 63.404C89.1666 63.404 89.5946 63.352 89.9866 63.248C90.3866 63.136 90.7546 62.988 91.0906 62.804L91.9546 64.352ZM96.1933 65V63.296H98.1133V54.056H96.1933V52.352H99.8773L100.297 55.316C100.777 54.268 101.365 53.464 102.061 52.904C102.765 52.336 103.677 52.052 104.797 52.052C105.165 52.052 105.489 52.08 105.769 52.136C106.057 52.192 106.349 52.264 106.645 52.352L106.285 56.792H104.509V54.152H104.497C102.601 54.152 101.241 55.508 100.417 58.22V63.296H102.985V65H96.1933ZM115.372 46.304C115.852 46.304 116.236 46.452 116.524 46.748C116.82 47.044 116.968 47.404 116.968 47.828C116.968 48.268 116.82 48.64 116.524 48.944C116.236 49.24 115.852 49.388 115.372 49.388C114.9 49.388 114.516 49.24 114.22 48.944C113.932 48.64 113.788 48.268 113.788 47.828C113.788 47.404 113.932 47.044 114.22 46.748C114.516 46.452 114.9 46.304 115.372 46.304ZM117.088 52.352V63.248H120.604V65H110.932V63.248H114.784V54.104H111.052V52.352H117.088ZM124.855 65V52.352H126.835L127.003 54.056C127.523 53.408 128.155 52.912 128.898 52.568C129.651 52.224 130.399 52.052 131.143 52.052C132.359 52.052 133.255 52.384 133.831 53.048C134.407 53.704 134.695 54.62 134.695 55.796V65H132.391V57.212C132.391 56.412 132.343 55.764 132.247 55.268C132.159 54.772 131.971 54.412 131.683 54.188C131.395 53.956 130.959 53.84 130.375 53.84C129.687 53.84 129.063 54.052 128.503 54.476C127.943 54.9 127.495 55.356 127.159 55.844V65H124.855ZM149.685 50.888L150.357 52.928C149.829 53.096 149.261 53.204 148.653 53.252C148.053 53.3 147.389 53.324 146.661 53.324C148.157 53.996 148.905 55.06 148.905 56.516C148.905 57.764 148.473 58.792 147.609 59.6C146.753 60.408 145.565 60.812 144.045 60.812C143.645 60.812 143.305 60.796 143.025 60.764C142.745 60.724 142.477 60.664 142.221 60.584C141.813 60.872 141.609 61.256 141.609 61.736C141.609 62.016 141.721 62.256 141.945 62.456C142.169 62.648 142.605 62.744 143.253 62.744H145.497C146.369 62.744 147.145 62.896 147.825 63.2C148.513 63.504 149.053 63.92 149.445 64.448C149.837 64.968 150.033 65.556 150.033 66.212C150.033 67.468 149.497 68.432 148.425 69.104C147.361 69.784 145.841 70.124 143.865 70.124C142.473 70.124 141.377 69.98 140.577 69.692C139.785 69.404 139.221 68.976 138.885 68.408C138.557 67.84 138.393 67.128 138.393 66.272H140.469C140.469 66.744 140.561 67.132 140.745 67.436C140.929 67.748 141.265 67.976 141.753 68.12C142.241 68.272 142.945 68.348 143.865 68.348C145.225 68.348 146.205 68.18 146.805 67.844C147.405 67.508 147.705 67.016 147.705 66.368C147.705 65.8 147.453 65.368 146.949 65.072C146.445 64.784 145.801 64.64 145.017 64.64H142.797C141.661 64.64 140.825 64.4 140.289 63.92C139.761 63.44 139.497 62.88 139.497 62.24C139.497 61.352 139.961 60.604 140.889 59.996C139.457 59.244 138.741 58.072 138.741 56.48C138.741 55.616 138.957 54.852 139.389 54.188C139.829 53.516 140.437 52.992 141.213 52.616C141.989 52.24 142.881 52.052 143.889 52.052C144.937 52.052 145.797 52.004 146.469 51.908C147.141 51.812 147.721 51.676 148.209 51.5C148.697 51.324 149.189 51.12 149.685 50.888ZM143.901 53.684C142.949 53.684 142.241 53.948 141.777 54.476C141.321 54.996 141.093 55.664 141.093 56.48C141.093 57.312 141.329 57.988 141.801 58.508C142.273 59.028 142.989 59.288 143.949 59.288C144.797 59.288 145.445 59.04 145.893 58.544C146.341 58.048 146.565 57.352 146.565 56.456C146.565 54.608 145.677 53.684 143.901 53.684Z" fill="#D64DA7"/>
</svg>
