<svg width="250" height="80" viewBox="0 0 250 80" fill="none" xmlns="http://www.w3.org/2000/svg">
<path d="M32.8284 11L46.9706 25.1421V25.8284L32.8284 39.9706L30 37.1421L35.1421 32H0V28H39.1421L41.6569 25.4853L39.1716 23H0V19H35.1716L30 13.8284L32.8284 11Z" fill="#244164"/>
<path d="M70.424 30.644C70.424 31.4 70.544 31.952 70.784 32.3C71.024 32.636 71.402 32.888 71.918 33.056L71.108 35.432C70.244 35.324 69.488 35.066 68.84 34.658C68.204 34.25 67.736 33.626 67.436 32.786C66.752 33.674 65.888 34.34 64.844 34.784C63.8 35.228 62.666 35.45 61.442 35.45C59.534 35.45 58.028 34.91 56.924 33.83C55.82 32.75 55.268 31.328 55.268 29.564C55.268 27.596 56.036 26.084 57.572 25.028C59.12 23.96 61.34 23.426 64.232 23.426H66.986V21.986C66.986 20.678 66.596 19.748 65.816 19.196C65.048 18.644 63.974 18.368 62.594 18.368C61.958 18.368 61.208 18.446 60.344 18.602C59.492 18.758 58.58 19.004 57.608 19.34L56.726 16.82C57.89 16.376 59.012 16.058 60.092 15.866C61.172 15.674 62.18 15.578 63.116 15.578C65.552 15.578 67.376 16.136 68.588 17.252C69.812 18.368 70.424 19.886 70.424 21.806V30.644ZM62.414 32.858C63.29 32.858 64.136 32.63 64.952 32.174C65.78 31.718 66.458 31.082 66.986 30.266V25.676H64.466C62.462 25.676 61.04 26.018 60.2 26.702C59.36 27.374 58.94 28.298 58.94 29.474C58.94 31.73 60.098 32.858 62.414 32.858ZM78.2039 35V32.444H81.0839V18.584H78.2039V16.028H83.7299L84.3599 20.474C85.0799 18.902 85.9619 17.696 87.0059 16.856C88.0619 16.004 89.4299 15.578 91.1099 15.578C91.6619 15.578 92.1479 15.62 92.5679 15.704C92.9999 15.788 93.4379 15.896 93.8819 16.028L93.3419 22.688H90.6779V18.728H90.6599C87.8159 18.728 85.7759 20.762 84.5399 24.83V32.444H88.3919V35H78.2039ZM99.7899 35V32.444H102.67V18.584H99.7899V16.028H105.316L105.946 20.474C106.666 18.902 107.548 17.696 108.592 16.856C109.648 16.004 111.016 15.578 112.696 15.578C113.248 15.578 113.734 15.62 114.154 15.704C114.586 15.788 115.024 15.896 115.468 16.028L114.928 22.688H112.264V18.728H112.246C109.402 18.728 107.362 20.762 106.126 24.83V32.444H109.978V35H99.7899ZM128.594 15.578C131.306 15.578 133.364 16.478 134.768 18.278C136.184 20.078 136.892 22.484 136.892 25.496C136.892 27.452 136.568 29.18 135.92 30.68C135.284 32.18 134.348 33.35 133.112 34.19C131.876 35.03 130.358 35.45 128.558 35.45C125.846 35.45 123.776 34.55 122.348 32.75C120.932 30.95 120.224 28.544 120.224 25.532C120.224 23.564 120.542 21.836 121.178 20.348C121.826 18.848 122.768 17.678 124.004 16.838C125.252 15.998 126.782 15.578 128.594 15.578ZM128.594 18.332C127.034 18.332 125.858 18.92 125.066 20.096C124.274 21.26 123.878 23.072 123.878 25.532C123.878 27.968 124.268 29.774 125.048 30.95C125.828 32.114 126.998 32.696 128.558 32.696C130.118 32.696 131.288 32.114 132.068 30.95C132.848 29.774 133.238 27.956 133.238 25.496C133.238 23.048 132.848 21.242 132.068 20.078C131.288 18.914 130.13 18.332 128.594 18.332ZM157.182 35H152.574L150.252 21.266L147.75 35H143.25L139.884 16.028H143.322L145.554 32.858L148.416 18.44H152.196L154.878 32.858L157.11 16.028H160.404L157.182 35ZM171.01 32.696C172.39 32.696 173.476 32.444 174.268 31.94C175.072 31.436 175.474 30.752 175.474 29.888C175.474 29.336 175.366 28.868 175.15 28.484C174.946 28.088 174.514 27.728 173.854 27.404C173.206 27.068 172.222 26.732 170.902 26.396C169.606 26.072 168.478 25.694 167.518 25.262C166.57 24.83 165.832 24.266 165.304 23.57C164.788 22.874 164.53 21.974 164.53 20.87C164.53 19.262 165.202 17.978 166.546 17.018C167.89 16.058 169.672 15.578 171.892 15.578C173.452 15.578 174.808 15.788 175.96 16.208C177.112 16.616 178.096 17.12 178.912 17.72L177.436 19.97C176.704 19.49 175.9 19.094 175.024 18.782C174.16 18.458 173.14 18.296 171.964 18.296C170.56 18.296 169.558 18.512 168.958 18.944C168.37 19.364 168.076 19.922 168.076 20.618C168.076 21.146 168.22 21.584 168.508 21.932C168.808 22.268 169.318 22.58 170.038 22.868C170.758 23.144 171.754 23.456 173.026 23.804C174.262 24.14 175.342 24.536 176.266 24.992C177.19 25.448 177.904 26.048 178.408 26.792C178.924 27.524 179.182 28.49 179.182 29.69C179.182 31.046 178.792 32.15 178.012 33.002C177.232 33.842 176.218 34.46 174.97 34.856C173.734 35.252 172.414 35.45 171.01 35.45C169.282 35.45 167.794 35.198 166.546 34.694C165.31 34.19 164.272 33.572 163.432 32.84L165.34 30.644C166.072 31.256 166.918 31.754 167.878 32.138C168.85 32.51 169.894 32.696 171.01 32.696Z" fill="#244164"/>
<path d="M48.2577 45L60 56.7157V57.2843L48.2577 69L45.9092 66.6569L50.1788 62.397H21V59.0833H53.5L55.588 57L53.5245 54.9411H21V51.6274H50.2032L45.9092 47.3431L48.2577 45Z" fill="#CE576C"/>
<path d="M69.152 58.456C69.216 59.848 69.592 60.86 70.28 61.492C70.976 62.124 71.8 62.44 72.752 62.44C73.384 62.44 73.964 62.344 74.492 62.152C75.02 61.96 75.556 61.68 76.1 61.312L77.144 62.764C76.552 63.236 75.868 63.612 75.092 63.892C74.316 64.164 73.512 64.3 72.68 64.3C71.416 64.3 70.34 64.024 69.452 63.472C68.572 62.912 67.9 62.136 67.436 61.144C66.98 60.152 66.752 59 66.752 57.688C66.752 56.416 66.98 55.28 67.436 54.28C67.9 53.28 68.552 52.492 69.392 51.916C70.232 51.34 71.232 51.052 72.392 51.052C74.024 51.052 75.308 51.612 76.244 52.732C77.188 53.844 77.66 55.368 77.66 57.304C77.66 57.52 77.656 57.728 77.648 57.928C77.64 58.128 77.628 58.304 77.612 58.456H69.152ZM72.416 52.852C71.512 52.852 70.764 53.172 70.172 53.812C69.58 54.452 69.24 55.44 69.152 56.776H75.44C75.416 55.496 75.136 54.524 74.6 53.86C74.072 53.188 73.344 52.852 72.416 52.852ZM81.8026 64V62.296H83.7226V53.056H81.8026V51.352H85.4866L85.9066 54.316C86.3866 53.268 86.9746 52.464 87.6706 51.904C88.3746 51.336 89.2866 51.052 90.4066 51.052C90.7746 51.052 91.0986 51.08 91.3786 51.136C91.6666 51.192 91.9586 51.264 92.2546 51.352L91.8946 55.792H90.1186V53.152H90.1066C88.2106 53.152 86.8506 54.508 86.0266 57.22V62.296H88.5946V64H81.8026ZM96.1933 64V62.296H98.1133V53.056H96.1933V51.352H99.8773L100.297 54.316C100.777 53.268 101.365 52.464 102.061 51.904C102.765 51.336 103.677 51.052 104.797 51.052C105.165 51.052 105.489 51.08 105.769 51.136C106.057 51.192 106.349 51.264 106.645 51.352L106.285 55.792H104.509V53.152H104.497C102.601 53.152 101.241 54.508 100.417 57.22V62.296H102.985V64H96.1933ZM115.396 51.052C117.204 51.052 118.576 51.652 119.512 52.852C120.456 54.052 120.928 55.656 120.928 57.664C120.928 58.968 120.712 60.12 120.28 61.12C119.856 62.12 119.232 62.9 118.408 63.46C117.584 64.02 116.572 64.3 115.372 64.3C113.564 64.3 112.184 63.7 111.232 62.5C110.288 61.3 109.816 59.696 109.816 57.688C109.816 56.376 110.028 55.224 110.452 54.232C110.884 53.232 111.512 52.452 112.336 51.892C113.168 51.332 114.188 51.052 115.396 51.052ZM115.396 52.888C114.356 52.888 113.572 53.28 113.044 54.064C112.516 54.84 112.252 56.048 112.252 57.688C112.252 59.312 112.512 60.516 113.032 61.3C113.552 62.076 114.332 62.464 115.372 62.464C116.412 62.464 117.192 62.076 117.712 61.3C118.232 60.516 118.492 59.304 118.492 57.664C118.492 56.032 118.232 54.828 117.712 54.052C117.192 53.276 116.42 52.888 115.396 52.888ZM124.975 64V62.296H126.895V53.056H124.975V51.352H128.659L129.079 54.316C129.559 53.268 130.147 52.464 130.843 51.904C131.547 51.336 132.459 51.052 133.579 51.052C133.947 51.052 134.271 51.08 134.551 51.136C134.839 51.192 135.131 51.264 135.427 51.352L135.067 55.792H133.291V53.152H133.279C131.383 53.152 130.023 54.508 129.199 57.22V62.296H131.767V64H124.975Z" fill="#CE576C"/>
</svg>
