<svg width="250" height="80" viewBox="0 0 250 80" fill="none" xmlns="http://www.w3.org/2000/svg">
<path d="M32.8284 14L46.9706 28.1421V28.8284L32.8284 42.9706L30 40.1421L35.1421 35H0V31H39.1421L41.6569 28.4853L39.1716 26H0V22H35.1716L30 16.8284L32.8284 14Z" fill="#244164"/>
<path d="M70.424 33.644C70.424 34.4 70.544 34.952 70.784 35.3C71.024 35.636 71.402 35.888 71.918 36.056L71.108 38.432C70.244 38.324 69.488 38.066 68.84 37.658C68.204 37.25 67.736 36.626 67.436 35.786C66.752 36.674 65.888 37.34 64.844 37.784C63.8 38.228 62.666 38.45 61.442 38.45C59.534 38.45 58.028 37.91 56.924 36.83C55.82 35.75 55.268 34.328 55.268 32.564C55.268 30.596 56.036 29.084 57.572 28.028C59.12 26.96 61.34 26.426 64.232 26.426H66.986V24.986C66.986 23.678 66.596 22.748 65.816 22.196C65.048 21.644 63.974 21.368 62.594 21.368C61.958 21.368 61.208 21.446 60.344 21.602C59.492 21.758 58.58 22.004 57.608 22.34L56.726 19.82C57.89 19.376 59.012 19.058 60.092 18.866C61.172 18.674 62.18 18.578 63.116 18.578C65.552 18.578 67.376 19.136 68.588 20.252C69.812 21.368 70.424 22.886 70.424 24.806V33.644ZM62.414 35.858C63.29 35.858 64.136 35.63 64.952 35.174C65.78 34.718 66.458 34.082 66.986 33.266V28.676H64.466C62.462 28.676 61.04 29.018 60.2 29.702C59.36 30.374 58.94 31.298 58.94 32.474C58.94 34.73 60.098 35.858 62.414 35.858ZM78.2039 38V35.444H81.0839V21.584H78.2039V19.028H83.7299L84.3599 23.474C85.0799 21.902 85.9619 20.696 87.0059 19.856C88.0619 19.004 89.4299 18.578 91.1099 18.578C91.6619 18.578 92.1479 18.62 92.5679 18.704C92.9999 18.788 93.4379 18.896 93.8819 19.028L93.3419 25.688H90.6779V21.728H90.6599C87.8159 21.728 85.7759 23.762 84.5399 27.83V35.444H88.3919V38H78.2039ZM99.7899 38V35.444H102.67V21.584H99.7899V19.028H105.316L105.946 23.474C106.666 21.902 107.548 20.696 108.592 19.856C109.648 19.004 111.016 18.578 112.696 18.578C113.248 18.578 113.734 18.62 114.154 18.704C114.586 18.788 115.024 18.896 115.468 19.028L114.928 25.688H112.264V21.728H112.246C109.402 21.728 107.362 23.762 106.126 27.83V35.444H109.978V38H99.7899ZM128.594 18.578C131.306 18.578 133.364 19.478 134.768 21.278C136.184 23.078 136.892 25.484 136.892 28.496C136.892 30.452 136.568 32.18 135.92 33.68C135.284 35.18 134.348 36.35 133.112 37.19C131.876 38.03 130.358 38.45 128.558 38.45C125.846 38.45 123.776 37.55 122.348 35.75C120.932 33.95 120.224 31.544 120.224 28.532C120.224 26.564 120.542 24.836 121.178 23.348C121.826 21.848 122.768 20.678 124.004 19.838C125.252 18.998 126.782 18.578 128.594 18.578ZM128.594 21.332C127.034 21.332 125.858 21.92 125.066 23.096C124.274 24.26 123.878 26.072 123.878 28.532C123.878 30.968 124.268 32.774 125.048 33.95C125.828 35.114 126.998 35.696 128.558 35.696C130.118 35.696 131.288 35.114 132.068 33.95C132.848 32.774 133.238 30.956 133.238 28.496C133.238 26.048 132.848 24.242 132.068 23.078C131.288 21.914 130.13 21.332 128.594 21.332ZM157.182 38H152.574L150.252 24.266L147.75 38H143.25L139.884 19.028H143.322L145.554 35.858L148.416 21.44H152.196L154.878 35.858L157.11 19.028H160.404L157.182 38ZM171.01 35.696C172.39 35.696 173.476 35.444 174.268 34.94C175.072 34.436 175.474 33.752 175.474 32.888C175.474 32.336 175.366 31.868 175.15 31.484C174.946 31.088 174.514 30.728 173.854 30.404C173.206 30.068 172.222 29.732 170.902 29.396C169.606 29.072 168.478 28.694 167.518 28.262C166.57 27.83 165.832 27.266 165.304 26.57C164.788 25.874 164.53 24.974 164.53 23.87C164.53 22.262 165.202 20.978 166.546 20.018C167.89 19.058 169.672 18.578 171.892 18.578C173.452 18.578 174.808 18.788 175.96 19.208C177.112 19.616 178.096 20.12 178.912 20.72L177.436 22.97C176.704 22.49 175.9 22.094 175.024 21.782C174.16 21.458 173.14 21.296 171.964 21.296C170.56 21.296 169.558 21.512 168.958 21.944C168.37 22.364 168.076 22.922 168.076 23.618C168.076 24.146 168.22 24.584 168.508 24.932C168.808 25.268 169.318 25.58 170.038 25.868C170.758 26.144 171.754 26.456 173.026 26.804C174.262 27.14 175.342 27.536 176.266 27.992C177.19 28.448 177.904 29.048 178.408 29.792C178.924 30.524 179.182 31.49 179.182 32.69C179.182 34.046 178.792 35.15 178.012 36.002C177.232 36.842 176.218 37.46 174.97 37.856C173.734 38.252 172.414 38.45 171.01 38.45C169.282 38.45 167.794 38.198 166.546 37.694C165.31 37.19 164.272 36.572 163.432 35.84L165.34 33.644C166.072 34.256 166.918 34.754 167.878 35.138C168.85 35.51 169.894 35.696 171.01 35.696Z" fill="#244164"/>
<path d="M48.2577 48L60 59.7157V60.2843L48.2577 72L45.9092 69.6569L50.1788 65.397H21V62.0833H53.5L55.588 60L53.5245 57.9411H21V54.6274H50.2032L45.9092 50.3431L48.2577 48Z" fill="#30B6AE"/>
<path d="M92.2577 48L104 59.7157V60.2843L92.2577 72L89.9092 69.6569L94.1788 65.397H65V62.0833H97.5L99.588 60L97.5245 57.9411H65V54.6274H94.2032L89.9092 50.3431L92.2577 48Z" fill="#88B63D"/>
<path d="M136.258 48L148 59.7157V60.2843L136.258 72L133.909 69.6569L138.179 65.397H109V62.0833H141.5L143.588 60L141.524 57.9411H109V54.6274H138.203L133.909 50.3431L136.258 48Z" fill="#D48D64"/>
<path d="M180.258 48L192 59.7157V60.2843L180.258 72L177.909 69.6569L182.179 65.397H153V62.0833H185.5L187.588 60L185.524 57.9411H153V54.6274H182.203L177.909 50.3431L180.258 48Z" fill="#CE576C"/>
</svg>
