<svg width="250" height="80" viewBox="0 0 250 80" fill="none" xmlns="http://www.w3.org/2000/svg">
<path d="M32.8284 12L46.9706 26.1421V26.8284L32.8284 40.9706L30 38.1421L35.1421 33H0V29H39.1421L41.6569 26.4853L39.1716 24H0V20H35.1716L30 14.8284L32.8284 12Z" fill="#244164"/>
<path d="M70.424 31.644C70.424 32.4 70.544 32.952 70.784 33.3C71.024 33.636 71.402 33.888 71.918 34.056L71.108 36.432C70.244 36.324 69.488 36.066 68.84 35.658C68.204 35.25 67.736 34.626 67.436 33.786C66.752 34.674 65.888 35.34 64.844 35.784C63.8 36.228 62.666 36.45 61.442 36.45C59.534 36.45 58.028 35.91 56.924 34.83C55.82 33.75 55.268 32.328 55.268 30.564C55.268 28.596 56.036 27.084 57.572 26.028C59.12 24.96 61.34 24.426 64.232 24.426H66.986V22.986C66.986 21.678 66.596 20.748 65.816 20.196C65.048 19.644 63.974 19.368 62.594 19.368C61.958 19.368 61.208 19.446 60.344 19.602C59.492 19.758 58.58 20.004 57.608 20.34L56.726 17.82C57.89 17.376 59.012 17.058 60.092 16.866C61.172 16.674 62.18 16.578 63.116 16.578C65.552 16.578 67.376 17.136 68.588 18.252C69.812 19.368 70.424 20.886 70.424 22.806V31.644ZM62.414 33.858C63.29 33.858 64.136 33.63 64.952 33.174C65.78 32.718 66.458 32.082 66.986 31.266V26.676H64.466C62.462 26.676 61.04 27.018 60.2 27.702C59.36 28.374 58.94 29.298 58.94 30.474C58.94 32.73 60.098 33.858 62.414 33.858ZM78.2039 36V33.444H81.0839V19.584H78.2039V17.028H83.7299L84.3599 21.474C85.0799 19.902 85.9619 18.696 87.0059 17.856C88.0619 17.004 89.4299 16.578 91.1099 16.578C91.6619 16.578 92.1479 16.62 92.5679 16.704C92.9999 16.788 93.4379 16.896 93.8819 17.028L93.3419 23.688H90.6779V19.728H90.6599C87.8159 19.728 85.7759 21.762 84.5399 25.83V33.444H88.3919V36H78.2039ZM99.7899 36V33.444H102.67V19.584H99.7899V17.028H105.316L105.946 21.474C106.666 19.902 107.548 18.696 108.592 17.856C109.648 17.004 111.016 16.578 112.696 16.578C113.248 16.578 113.734 16.62 114.154 16.704C114.586 16.788 115.024 16.896 115.468 17.028L114.928 23.688H112.264V19.728H112.246C109.402 19.728 107.362 21.762 106.126 25.83V33.444H109.978V36H99.7899ZM128.594 16.578C131.306 16.578 133.364 17.478 134.768 19.278C136.184 21.078 136.892 23.484 136.892 26.496C136.892 28.452 136.568 30.18 135.92 31.68C135.284 33.18 134.348 34.35 133.112 35.19C131.876 36.03 130.358 36.45 128.558 36.45C125.846 36.45 123.776 35.55 122.348 33.75C120.932 31.95 120.224 29.544 120.224 26.532C120.224 24.564 120.542 22.836 121.178 21.348C121.826 19.848 122.768 18.678 124.004 17.838C125.252 16.998 126.782 16.578 128.594 16.578ZM128.594 19.332C127.034 19.332 125.858 19.92 125.066 21.096C124.274 22.26 123.878 24.072 123.878 26.532C123.878 28.968 124.268 30.774 125.048 31.95C125.828 33.114 126.998 33.696 128.558 33.696C130.118 33.696 131.288 33.114 132.068 31.95C132.848 30.774 133.238 28.956 133.238 26.496C133.238 24.048 132.848 22.242 132.068 21.078C131.288 19.914 130.13 19.332 128.594 19.332ZM157.182 36H152.574L150.252 22.266L147.75 36H143.25L139.884 17.028H143.322L145.554 33.858L148.416 19.44H152.196L154.878 33.858L157.11 17.028H160.404L157.182 36ZM171.01 33.696C172.39 33.696 173.476 33.444 174.268 32.94C175.072 32.436 175.474 31.752 175.474 30.888C175.474 30.336 175.366 29.868 175.15 29.484C174.946 29.088 174.514 28.728 173.854 28.404C173.206 28.068 172.222 27.732 170.902 27.396C169.606 27.072 168.478 26.694 167.518 26.262C166.57 25.83 165.832 25.266 165.304 24.57C164.788 23.874 164.53 22.974 164.53 21.87C164.53 20.262 165.202 18.978 166.546 18.018C167.89 17.058 169.672 16.578 171.892 16.578C173.452 16.578 174.808 16.788 175.96 17.208C177.112 17.616 178.096 18.12 178.912 18.72L177.436 20.97C176.704 20.49 175.9 20.094 175.024 19.782C174.16 19.458 173.14 19.296 171.964 19.296C170.56 19.296 169.558 19.512 168.958 19.944C168.37 20.364 168.076 20.922 168.076 21.618C168.076 22.146 168.22 22.584 168.508 22.932C168.808 23.268 169.318 23.58 170.038 23.868C170.758 24.144 171.754 24.456 173.026 24.804C174.262 25.14 175.342 25.536 176.266 25.992C177.19 26.448 177.904 27.048 178.408 27.792C178.924 28.524 179.182 29.49 179.182 30.69C179.182 32.046 178.792 33.15 178.012 34.002C177.232 34.842 176.218 35.46 174.97 35.856C173.734 36.252 172.414 36.45 171.01 36.45C169.282 36.45 167.794 36.198 166.546 35.694C165.31 35.19 164.272 34.572 163.432 33.84L165.34 31.644C166.072 32.256 166.918 32.754 167.878 33.138C168.85 33.51 169.894 33.696 171.01 33.696Z" fill="#244164"/>
<path d="M48.2577 46L60 57.7157V58.2843L48.2577 70L45.9092 67.6569L50.1788 63.397H21V60.0833H53.5L55.588 58L53.5245 55.9411H21V52.6274H50.2032L45.9092 48.3431L48.2577 46Z" fill="#88B63D"/>
<path d="M76.616 62.096C76.616 62.6 76.696 62.968 76.856 63.2C77.016 63.424 77.268 63.592 77.612 63.704L77.072 65.288C76.496 65.216 75.992 65.044 75.56 64.772C75.136 64.5 74.824 64.084 74.624 63.524C74.168 64.116 73.592 64.56 72.896 64.856C72.2 65.152 71.444 65.3 70.628 65.3C69.356 65.3 68.352 64.94 67.616 64.22C66.88 63.5 66.512 62.552 66.512 61.376C66.512 60.064 67.024 59.056 68.048 58.352C69.08 57.64 70.56 57.284 72.488 57.284H74.324V56.324C74.324 55.452 74.064 54.832 73.544 54.464C73.032 54.096 72.316 53.912 71.396 53.912C70.972 53.912 70.472 53.964 69.896 54.068C69.328 54.172 68.72 54.336 68.072 54.56L67.484 52.88C68.26 52.584 69.008 52.372 69.728 52.244C70.448 52.116 71.12 52.052 71.744 52.052C73.368 52.052 74.584 52.424 75.392 53.168C76.208 53.912 76.616 54.924 76.616 56.204V62.096ZM71.276 63.572C71.86 63.572 72.424 63.42 72.968 63.116C73.52 62.812 73.972 62.388 74.324 61.844V58.784H72.644C71.308 58.784 70.36 59.012 69.8 59.468C69.24 59.916 68.96 60.532 68.96 61.316C68.96 62.82 69.732 63.572 71.276 63.572ZM81.8026 65V63.296H83.7226V54.056H81.8026V52.352H85.4866L85.9066 55.316C86.3866 54.268 86.9746 53.464 87.6706 52.904C88.3746 52.336 89.2866 52.052 90.4066 52.052C90.7746 52.052 91.0986 52.08 91.3786 52.136C91.6666 52.192 91.9586 52.264 92.2546 52.352L91.8946 56.792H90.1186V54.152H90.1066C88.2106 54.152 86.8506 55.508 86.0266 58.22V63.296H88.5946V65H81.8026ZM96.1933 65V63.296H98.1133V54.056H96.1933V52.352H99.8773L100.297 55.316C100.777 54.268 101.365 53.464 102.061 52.904C102.765 52.336 103.677 52.052 104.797 52.052C105.165 52.052 105.489 52.08 105.769 52.136C106.057 52.192 106.349 52.264 106.645 52.352L106.285 56.792H104.509V54.152H104.497C102.601 54.152 101.241 55.508 100.417 58.22V63.296H102.985V65H96.1933ZM119.788 62.096C119.788 62.6 119.868 62.968 120.028 63.2C120.188 63.424 120.44 63.592 120.784 63.704L120.244 65.288C119.668 65.216 119.164 65.044 118.732 64.772C118.308 64.5 117.996 64.084 117.796 63.524C117.34 64.116 116.764 64.56 116.068 64.856C115.372 65.152 114.616 65.3 113.8 65.3C112.528 65.3 111.524 64.94 110.788 64.22C110.052 63.5 109.684 62.552 109.684 61.376C109.684 60.064 110.196 59.056 111.22 58.352C112.252 57.64 113.732 57.284 115.66 57.284H117.496V56.324C117.496 55.452 117.236 54.832 116.716 54.464C116.204 54.096 115.488 53.912 114.568 53.912C114.144 53.912 113.644 53.964 113.068 54.068C112.5 54.172 111.892 54.336 111.244 54.56L110.656 52.88C111.432 52.584 112.18 52.372 112.9 52.244C113.62 52.116 114.292 52.052 114.916 52.052C116.54 52.052 117.756 52.424 118.564 53.168C119.38 53.912 119.788 54.924 119.788 56.204V62.096ZM114.448 63.572C115.032 63.572 115.596 63.42 116.14 63.116C116.692 62.812 117.144 62.388 117.496 61.844V58.784H115.816C114.48 58.784 113.532 59.012 112.972 59.468C112.412 59.916 112.132 60.532 112.132 61.316C112.132 62.82 112.904 63.572 114.448 63.572ZM135.619 52.352L131.203 65.072C130.899 65.968 130.507 66.776 130.027 67.496C129.547 68.224 128.927 68.816 128.167 69.272C127.415 69.728 126.467 70.012 125.323 70.124L124.999 68.336C125.863 68.2 126.547 67.992 127.051 67.712C127.563 67.432 127.963 67.068 128.251 66.62C128.547 66.172 128.811 65.632 129.043 65H128.263L123.907 52.352H126.367L129.811 63.32L133.243 52.352H135.619Z" fill="#88B63D"/>
</svg>
