<svg width="250" height="80" viewBox="0 0 250 80" fill="none" xmlns="http://www.w3.org/2000/svg">
<path d="M32.8284 12L46.9706 26.1421V26.8284L32.8284 40.9706L30 38.1421L35.1421 33H0V29H39.1421L41.6569 26.4853L39.1716 24H0V20H35.1716L30 14.8284L32.8284 12Z" fill="#244164"/>
<path d="M70.424 31.644C70.424 32.4 70.544 32.952 70.784 33.3C71.024 33.636 71.402 33.888 71.918 34.056L71.108 36.432C70.244 36.324 69.488 36.066 68.84 35.658C68.204 35.25 67.736 34.626 67.436 33.786C66.752 34.674 65.888 35.34 64.844 35.784C63.8 36.228 62.666 36.45 61.442 36.45C59.534 36.45 58.028 35.91 56.924 34.83C55.82 33.75 55.268 32.328 55.268 30.564C55.268 28.596 56.036 27.084 57.572 26.028C59.12 24.96 61.34 24.426 64.232 24.426H66.986V22.986C66.986 21.678 66.596 20.748 65.816 20.196C65.048 19.644 63.974 19.368 62.594 19.368C61.958 19.368 61.208 19.446 60.344 19.602C59.492 19.758 58.58 20.004 57.608 20.34L56.726 17.82C57.89 17.376 59.012 17.058 60.092 16.866C61.172 16.674 62.18 16.578 63.116 16.578C65.552 16.578 67.376 17.136 68.588 18.252C69.812 19.368 70.424 20.886 70.424 22.806V31.644ZM62.414 33.858C63.29 33.858 64.136 33.63 64.952 33.174C65.78 32.718 66.458 32.082 66.986 31.266V26.676H64.466C62.462 26.676 61.04 27.018 60.2 27.702C59.36 28.374 58.94 29.298 58.94 30.474C58.94 32.73 60.098 33.858 62.414 33.858ZM78.2039 36V33.444H81.0839V19.584H78.2039V17.028H83.7299L84.3599 21.474C85.0799 19.902 85.9619 18.696 87.0059 17.856C88.0619 17.004 89.4299 16.578 91.1099 16.578C91.6619 16.578 92.1479 16.62 92.5679 16.704C92.9999 16.788 93.4379 16.896 93.8819 17.028L93.3419 23.688H90.6779V19.728H90.6599C87.8159 19.728 85.7759 21.762 84.5399 25.83V33.444H88.3919V36H78.2039ZM99.7899 36V33.444H102.67V19.584H99.7899V17.028H105.316L105.946 21.474C106.666 19.902 107.548 18.696 108.592 17.856C109.648 17.004 111.016 16.578 112.696 16.578C113.248 16.578 113.734 16.62 114.154 16.704C114.586 16.788 115.024 16.896 115.468 17.028L114.928 23.688H112.264V19.728H112.246C109.402 19.728 107.362 21.762 106.126 25.83V33.444H109.978V36H99.7899ZM128.594 16.578C131.306 16.578 133.364 17.478 134.768 19.278C136.184 21.078 136.892 23.484 136.892 26.496C136.892 28.452 136.568 30.18 135.92 31.68C135.284 33.18 134.348 34.35 133.112 35.19C131.876 36.03 130.358 36.45 128.558 36.45C125.846 36.45 123.776 35.55 122.348 33.75C120.932 31.95 120.224 29.544 120.224 26.532C120.224 24.564 120.542 22.836 121.178 21.348C121.826 19.848 122.768 18.678 124.004 17.838C125.252 16.998 126.782 16.578 128.594 16.578ZM128.594 19.332C127.034 19.332 125.858 19.92 125.066 21.096C124.274 22.26 123.878 24.072 123.878 26.532C123.878 28.968 124.268 30.774 125.048 31.95C125.828 33.114 126.998 33.696 128.558 33.696C130.118 33.696 131.288 33.114 132.068 31.95C132.848 30.774 133.238 28.956 133.238 26.496C133.238 24.048 132.848 22.242 132.068 21.078C131.288 19.914 130.13 19.332 128.594 19.332ZM157.182 36H152.574L150.252 22.266L147.75 36H143.25L139.884 17.028H143.322L145.554 33.858L148.416 19.44H152.196L154.878 33.858L157.11 17.028H160.404L157.182 36ZM171.01 33.696C172.39 33.696 173.476 33.444 174.268 32.94C175.072 32.436 175.474 31.752 175.474 30.888C175.474 30.336 175.366 29.868 175.15 29.484C174.946 29.088 174.514 28.728 173.854 28.404C173.206 28.068 172.222 27.732 170.902 27.396C169.606 27.072 168.478 26.694 167.518 26.262C166.57 25.83 165.832 25.266 165.304 24.57C164.788 23.874 164.53 22.974 164.53 21.87C164.53 20.262 165.202 18.978 166.546 18.018C167.89 17.058 169.672 16.578 171.892 16.578C173.452 16.578 174.808 16.788 175.96 17.208C177.112 17.616 178.096 18.12 178.912 18.72L177.436 20.97C176.704 20.49 175.9 20.094 175.024 19.782C174.16 19.458 173.14 19.296 171.964 19.296C170.56 19.296 169.558 19.512 168.958 19.944C168.37 20.364 168.076 20.922 168.076 21.618C168.076 22.146 168.22 22.584 168.508 22.932C168.808 23.268 169.318 23.58 170.038 23.868C170.758 24.144 171.754 24.456 173.026 24.804C174.262 25.14 175.342 25.536 176.266 25.992C177.19 26.448 177.904 27.048 178.408 27.792C178.924 28.524 179.182 29.49 179.182 30.69C179.182 32.046 178.792 33.15 178.012 34.002C177.232 34.842 176.218 35.46 174.97 35.856C173.734 36.252 172.414 36.45 171.01 36.45C169.282 36.45 167.794 36.198 166.546 35.694C165.31 35.19 164.272 34.572 163.432 33.84L165.34 31.644C166.072 32.256 166.918 32.754 167.878 33.138C168.85 33.51 169.894 33.696 171.01 33.696Z" fill="#244164"/>
<path d="M48.2577 46L60 57.7157V58.2843L48.2577 70L45.9092 67.6569L50.1788 63.397H21V60.0833H53.5L55.588 58L53.5245 55.9411H21V52.6274H50.2032L45.9092 48.3431L48.2577 46Z" fill="#D58D64"/>
<path d="M73.172 63.356C73.788 63.356 74.36 63.256 74.888 63.056C75.424 62.848 75.924 62.58 76.388 62.252L77.492 63.752C76.932 64.216 76.26 64.592 75.476 64.88C74.7 65.16 73.92 65.3 73.136 65.3C71.864 65.3 70.776 65.028 69.872 64.484C68.976 63.94 68.292 63.176 67.82 62.192C67.348 61.208 67.112 60.056 67.112 58.736C67.112 57.456 67.348 56.316 67.82 55.316C68.3 54.308 68.992 53.512 69.896 52.928C70.8 52.344 71.892 52.052 73.172 52.052C74.82 52.052 76.252 52.548 77.468 53.54L76.376 55.04C75.312 54.304 74.248 53.936 73.184 53.936C72.128 53.936 71.264 54.328 70.592 55.112C69.92 55.896 69.584 57.104 69.584 58.736C69.584 60.376 69.92 61.556 70.592 62.276C71.272 62.996 72.132 63.356 73.172 63.356ZM86.6146 52.052C88.4226 52.052 89.7946 52.652 90.7306 53.852C91.6746 55.052 92.1466 56.656 92.1466 58.664C92.1466 59.968 91.9306 61.12 91.4986 62.12C91.0746 63.12 90.4506 63.9 89.6266 64.46C88.8026 65.02 87.7906 65.3 86.5906 65.3C84.7826 65.3 83.4026 64.7 82.4506 63.5C81.5066 62.3 81.0346 60.696 81.0346 58.688C81.0346 57.376 81.2466 56.224 81.6706 55.232C82.1026 54.232 82.7306 53.452 83.5546 52.892C84.3866 52.332 85.4066 52.052 86.6146 52.052ZM86.6146 53.888C85.5746 53.888 84.7906 54.28 84.2626 55.064C83.7346 55.84 83.4706 57.048 83.4706 58.688C83.4706 60.312 83.7306 61.516 84.2506 62.3C84.7706 63.076 85.5506 63.464 86.5906 63.464C87.6306 63.464 88.4106 63.076 88.9306 62.3C89.4506 61.516 89.7106 60.304 89.7106 58.664C89.7106 57.032 89.4506 55.828 88.9306 55.052C88.4106 54.276 87.6386 53.888 86.6146 53.888ZM104.581 52.052C105.013 52.052 105.417 52.148 105.793 52.34C106.177 52.532 106.485 52.884 106.717 53.396C106.949 53.9 107.065 54.632 107.065 55.592V65H104.965V55.928C104.965 55.192 104.917 54.664 104.821 54.344C104.733 54.016 104.477 53.852 104.053 53.852C103.701 53.852 103.349 53.96 102.997 54.176C102.653 54.392 102.317 54.752 101.989 55.256V65H99.9733V55.928C99.9733 55.192 99.9253 54.664 99.8293 54.344C99.7413 54.016 99.4853 53.852 99.0613 53.852C98.7013 53.852 98.3493 53.96 98.0053 54.176C97.6613 54.392 97.3253 54.752 96.9973 55.256V65H94.8973V52.352H96.6733L96.8173 53.768C97.1693 53.28 97.5573 52.872 97.9813 52.544C98.4133 52.216 98.9373 52.052 99.5533 52.052C100.033 52.052 100.477 52.168 100.885 52.4C101.301 52.632 101.605 53.064 101.797 53.696C102.141 53.208 102.533 52.812 102.973 52.508C103.413 52.204 103.949 52.052 104.581 52.052ZM116.344 52.052C117.464 52.052 118.36 52.328 119.032 52.88C119.704 53.424 120.188 54.192 120.484 55.184C120.78 56.168 120.928 57.328 120.928 58.664C120.928 59.944 120.748 61.084 120.388 62.084C120.028 63.084 119.488 63.872 118.768 64.448C118.048 65.016 117.144 65.3 116.056 65.3C114.696 65.3 113.6 64.82 112.768 63.86V69.848L110.464 70.124V52.352H112.444L112.612 54.056C113.588 52.72 114.832 52.052 116.344 52.052ZM115.756 53.864C115.1 53.864 114.52 54.064 114.016 54.464C113.512 54.856 113.096 55.304 112.768 55.808V61.928C113.088 62.4 113.48 62.772 113.944 63.044C114.408 63.308 114.924 63.44 115.492 63.44C116.484 63.44 117.232 63.056 117.736 62.288C118.24 61.512 118.492 60.304 118.492 58.664C118.492 57.024 118.268 55.816 117.82 55.04C117.372 54.256 116.684 53.864 115.756 53.864ZM129.787 52.052C131.595 52.052 132.967 52.652 133.903 53.852C134.847 55.052 135.319 56.656 135.319 58.664C135.319 59.968 135.103 61.12 134.671 62.12C134.247 63.12 133.623 63.9 132.799 64.46C131.975 65.02 130.963 65.3 129.763 65.3C127.955 65.3 126.575 64.7 125.623 63.5C124.679 62.3 124.207 60.696 124.207 58.688C124.207 57.376 124.419 56.224 124.843 55.232C125.275 54.232 125.903 53.452 126.727 52.892C127.559 52.332 128.579 52.052 129.787 52.052ZM129.787 53.888C128.747 53.888 127.963 54.28 127.435 55.064C126.907 55.84 126.643 57.048 126.643 58.688C126.643 60.312 126.903 61.516 127.423 62.3C127.943 63.076 128.723 63.464 129.763 63.464C130.803 63.464 131.583 63.076 132.103 62.3C132.623 61.516 132.883 60.304 132.883 58.664C132.883 57.032 132.623 55.828 132.103 55.052C131.583 54.276 130.811 53.888 129.787 53.888ZM143.673 63.464C144.593 63.464 145.317 63.296 145.845 62.96C146.381 62.624 146.649 62.168 146.649 61.592C146.649 61.224 146.577 60.912 146.433 60.656C146.297 60.392 146.009 60.152 145.569 59.936C145.137 59.712 144.481 59.488 143.601 59.264C142.737 59.048 141.985 58.796 141.345 58.508C140.713 58.22 140.221 57.844 139.869 57.38C139.525 56.916 139.353 56.316 139.353 55.58C139.353 54.508 139.801 53.652 140.697 53.012C141.593 52.372 142.781 52.052 144.261 52.052C145.301 52.052 146.205 52.192 146.973 52.472C147.741 52.744 148.397 53.08 148.941 53.48L147.957 54.98C147.469 54.66 146.933 54.396 146.349 54.188C145.773 53.972 145.093 53.864 144.309 53.864C143.373 53.864 142.705 54.008 142.305 54.296C141.913 54.576 141.717 54.948 141.717 55.412C141.717 55.764 141.813 56.056 142.005 56.288C142.205 56.512 142.545 56.72 143.025 56.912C143.505 57.096 144.169 57.304 145.017 57.536C145.841 57.76 146.561 58.024 147.177 58.328C147.793 58.632 148.269 59.032 148.605 59.528C148.949 60.016 149.121 60.66 149.121 61.46C149.121 62.364 148.861 63.1 148.341 63.668C147.821 64.228 147.145 64.64 146.313 64.904C145.489 65.168 144.609 65.3 143.673 65.3C142.521 65.3 141.529 65.132 140.697 64.796C139.873 64.46 139.181 64.048 138.621 63.56L139.893 62.096C140.381 62.504 140.945 62.836 141.585 63.092C142.233 63.34 142.929 63.464 143.673 63.464ZM158.544 46.304C159.024 46.304 159.408 46.452 159.696 46.748C159.992 47.044 160.14 47.404 160.14 47.828C160.14 48.268 159.992 48.64 159.696 48.944C159.408 49.24 159.024 49.388 158.544 49.388C158.072 49.388 157.688 49.24 157.392 48.944C157.104 48.64 156.96 48.268 156.96 47.828C156.96 47.404 157.104 47.044 157.392 46.748C157.688 46.452 158.072 46.304 158.544 46.304ZM160.26 52.352V63.248H163.776V65H154.104V63.248H157.956V54.104H154.224V52.352H160.26ZM178.298 64.352C177.85 64.64 177.31 64.868 176.678 65.036C176.054 65.212 175.422 65.3 174.782 65.3C173.374 65.3 172.294 64.932 171.542 64.196C170.798 63.46 170.426 62.504 170.426 61.328V54.08H167.558V52.352H170.426V49.496L172.73 49.22V52.352H177.05L176.786 54.08H172.73V61.304C172.73 62 172.906 62.524 173.258 62.876C173.618 63.228 174.214 63.404 175.046 63.404C175.51 63.404 175.938 63.352 176.33 63.248C176.73 63.136 177.098 62.988 177.434 62.804L178.298 64.352ZM187.325 46.304C187.805 46.304 188.189 46.452 188.477 46.748C188.773 47.044 188.921 47.404 188.921 47.828C188.921 48.268 188.773 48.64 188.477 48.944C188.189 49.24 187.805 49.388 187.325 49.388C186.853 49.388 186.469 49.24 186.173 48.944C185.885 48.64 185.741 48.268 185.741 47.828C185.741 47.404 185.885 47.044 186.173 46.748C186.469 46.452 186.853 46.304 187.325 46.304ZM189.041 52.352V63.248H192.557V65H182.885V63.248H186.737V54.104H183.005V52.352H189.041ZM201.74 52.052C203.548 52.052 204.92 52.652 205.856 53.852C206.8 55.052 207.272 56.656 207.272 58.664C207.272 59.968 207.056 61.12 206.624 62.12C206.2 63.12 205.576 63.9 204.752 64.46C203.928 65.02 202.916 65.3 201.716 65.3C199.908 65.3 198.528 64.7 197.576 63.5C196.632 62.3 196.16 60.696 196.16 58.688C196.16 57.376 196.372 56.224 196.796 55.232C197.228 54.232 197.856 53.452 198.68 52.892C199.512 52.332 200.532 52.052 201.74 52.052ZM201.74 53.888C200.7 53.888 199.916 54.28 199.388 55.064C198.86 55.84 198.596 57.048 198.596 58.688C198.596 60.312 198.856 61.516 199.376 62.3C199.896 63.076 200.676 63.464 201.716 63.464C202.756 63.464 203.536 63.076 204.056 62.3C204.576 61.516 204.836 60.304 204.836 58.664C204.836 57.032 204.576 55.828 204.056 55.052C203.536 54.276 202.764 53.888 201.74 53.888ZM211.198 65V52.352H213.178L213.346 54.056C213.866 53.408 214.498 52.912 215.242 52.568C215.994 52.224 216.742 52.052 217.486 52.052C218.702 52.052 219.598 52.384 220.174 53.048C220.75 53.704 221.038 54.62 221.038 55.796V65H218.734V57.212C218.734 56.412 218.686 55.764 218.59 55.268C218.502 54.772 218.314 54.412 218.026 54.188C217.738 53.956 217.302 53.84 216.718 53.84C216.03 53.84 215.406 54.052 214.846 54.476C214.286 54.9 213.838 55.356 213.502 55.844V65H211.198Z" fill="#D58D64"/>
</svg>
